<svg version="1.2" baseProfile="tiny-ps" xmlns="http://www.w3.org/2000/svg" viewBox="0 0 739 91" width="739" height="91">
	<title>xsdata-pydantic-logo</title>
	<style>
		tspan { white-space:pre }
	</style>
	<path id="&lt;/&gt;xsdata:pydantic" fill="#1d73c9" aria-label="&lt;/&gt;xsdata:pydantic"  d="M25.08 49.19L25.08 49.19Q26.09 50.1 26.24 51.06Q26.43 51.97 25.95 52.67Q25.52 53.37 24.55 53.74Q23.58 54.07 22.43 53.8Q17.31 51.01 12.29 48.22Q7.32 45.43 2.2 42.59Q0.51 41.57 0.51 40.17Q0.51 38.78 2.2 37.76L22.23 27.78Q23.39 27.52 24.36 27.89Q25.32 28.21 25.76 28.91Q26.24 29.61 26.05 30.57Q25.9 31.49 24.84 32.4L9.05 40.28L25.08 49.19ZM34.38 52.03L45 21.83Q45.29 20.92 46.26 20.49Q47.27 20.06 48.53 20.54Q49.68 20.97 50.12 21.99Q50.55 22.96 50.26 23.87L39.64 54.07Q39.35 54.98 38.39 55.46Q37.47 55.89 36.26 55.46Q35.06 54.98 34.57 53.96Q34.09 52.94 34.38 52.03ZM60 32.4Q58.74 31.32 58.74 30.09Q58.74 29.5 58.98 29.02Q59.27 28.48 59.71 28.16Q60.19 27.78 60.77 27.68Q61.4 27.57 62.12 27.78Q67.34 30.57 72.5 33.36Q77.67 36.15 82.83 38.99Q84.47 40.01 84.47 41.41Q84.47 42.05 84.04 42.7Q83.65 43.34 82.83 43.82L62.36 53.8Q61.64 54.01 61.01 53.91Q60.43 53.8 59.95 53.48Q59.47 53.1 59.18 52.62Q58.94 52.08 58.94 51.49Q58.94 50.26 60.19 49.19L76.02 41.3Q67.96 36.9 60 32.4Z" />
	<path id="&lt;/&gt;xsdata:pydantic" fill="#05101b" aria-label="&lt;/&gt;xsdata:pydantic"  d="M137.88 73L123.21 73L114.57 58.7L106.92 73L92.61 73L107.37 47L92.79 23L107.46 23L115.92 37L123.39 23L137.7 23L123.12 48.7L137.88 73ZM143.19 37.4Q143.19 29.2 147.6 25.4Q152.1 21.5 161.73 21.5Q171 21.5 178.83 23.7L177.21 34.2Q172.26 32.7 166.41 32.7Q161.28 32.7 157.5 33.7L157.5 41.5Q167.04 42.8 171.99 44.7Q177.03 46.5 179.01 49.7Q181.08 52.8 181.08 58.2Q181.08 66.9 176.22 70.7Q171.36 74.5 160.38 74.5Q150.93 74.5 142.38 71.4L144.18 60.2Q150.84 63.3 158.76 63.3Q162.45 63.3 166.77 62.2L166.77 54.2Q156.51 52.8 151.65 51.1Q146.79 49.4 144.99 46.4Q143.19 43.3 143.19 37.4ZM216.9 7.2L230.31 5.9L230.31 73L223.83 73L221.22 68.5Q219.06 71.7 215.55 73.1Q212.13 74.5 206.73 74.5Q199.71 74.5 195.75 72.1Q191.88 69.6 190.08 63.9Q188.37 58.2 188.37 48Q188.37 38.1 189.99 32.5Q191.7 26.8 195.48 24.3Q199.26 21.8 205.83 21.8Q212.94 21.8 216.9 23.8L216.9 7.2ZM213.12 63Q215.37 63 216.09 62.5Q216.9 61.9 216.9 60.3L216.9 33.3L206.55 33.3Q204.3 33.3 203.49 33.9Q202.68 34.4 202.68 35.9L202.68 63L213.12 63ZM262.17 21.8Q272.07 21.8 276.39 25.5Q280.71 29.1 280.71 37.5L280.71 73L274.23 73L270.72 68Q264.06 74.2 255.06 74.2Q247.23 74.2 243.72 70.5Q240.3 66.7 240.3 58.3Q240.3 51.6 242.37 48.2Q244.44 44.8 249.66 43.5Q254.88 42.1 265.32 42.1L267.3 42.1L267.3 33.7Q265.05 32.9 260.46 32.9Q252.72 32.9 243.99 35.4L242.28 25Q246.51 23.4 251.64 22.6Q256.86 21.8 262.17 21.8ZM260.55 63.7Q264.42 63.7 265.86 62.7Q267.3 61.7 267.3 58.9L267.3 50.3L259.38 50.3Q255.42 50.3 253.98 51.4Q252.63 52.4 252.63 55.3L252.63 63.7L260.55 63.7ZM315.72 32.8L308.61 32.8L308.61 62.2Q311.4 62.7 314.46 62.8L313.83 72.9Q308.07 74.2 304.29 74.2Q299.61 74.2 297.36 72Q295.2 69.8 295.2 65.1L295.2 32.8L289.8 32.8L289.8 23L295.2 23L295.2 13.6L308.61 9.9L308.61 23L315.72 23L315.72 32.8ZM344.43 21.8Q354.33 21.8 358.65 25.5Q362.97 29.1 362.97 37.5L362.97 73L356.49 73L352.98 68Q346.32 74.2 337.32 74.2Q329.49 74.2 325.98 70.5Q322.56 66.7 322.56 58.3Q322.56 51.6 324.63 48.2Q326.7 44.8 331.92 43.5Q337.14 42.1 347.58 42.1L349.56 42.1L349.56 33.7Q347.31 32.9 342.72 32.9Q334.98 32.9 326.25 35.4L324.54 25Q328.77 23.4 333.9 22.6Q339.12 21.8 344.43 21.8ZM342.81 63.7Q346.68 63.7 348.12 62.7Q349.56 61.7 349.56 58.9L349.56 50.3L341.64 50.3Q337.68 50.3 336.24 51.4Q334.89 52.4 334.89 55.3L334.89 63.7L342.81 63.7ZM372.51 65Q372.51 60.1 374.04 58.2Q375.66 56.2 380.34 56.2Q384.93 56.2 386.46 58.2Q388.08 60.1 388.08 65Q388.08 69.8 386.46 71.7Q384.93 73.6 380.34 73.6Q375.66 73.6 374.04 71.7Q372.51 69.8 372.51 65ZM372.51 31.3Q372.51 26.4 374.04 24.5Q375.66 22.5 380.34 22.5Q384.93 22.5 386.46 24.5Q388.08 26.4 388.08 31.3Q388.08 36.1 386.46 38Q384.93 39.9 380.34 39.9Q375.66 39.9 374.04 38Q372.51 36.1 372.51 31.3Z" />
	<path id="&lt;/&gt;xsdata:pydantic" fill="#e92063" aria-label="&lt;/&gt;xsdata:pydantic"  d="M421.74 21.8Q428.49 21.8 432.36 24.3Q436.23 26.7 437.85 32.4Q439.56 38 439.56 48Q439.56 58 437.85 63.8Q436.14 69.5 432.27 72Q428.49 74.5 421.74 74.5Q414.72 74.5 410.94 72.4L410.94 88.8L397.53 90.1L397.53 23L404.01 23L406.71 27.6Q408.87 24.5 412.47 23.2Q416.07 21.8 421.74 21.8ZM425.16 60.3L425.16 33.3L414.81 33.3Q412.56 33.3 411.75 33.8Q410.94 34.3 410.94 35.7L410.94 63L421.38 63Q423.63 63 424.35 62.5Q425.16 61.9 425.16 60.3ZM473.85 23L486.99 23L475.65 69L475.56 69Q473.58 77.3 470.88 82Q468.27 86.7 464.22 88.7Q460.26 90.7 454.05 90.7Q448.92 90.7 444.78 89.4L445.32 81.6L453.78 80.4Q456.84 79.9 458.37 79.1Q459.99 78.2 460.89 76.4Q461.79 74.6 462.6 71L463.05 69L455.4 69L444.06 23L457.2 23L465.12 56.1L466.02 56.1L473.85 23ZM519.93 7.2L533.34 5.9L533.34 73L526.86 73L524.25 68.5Q522.09 71.7 518.58 73.1Q515.16 74.5 509.76 74.5Q502.74 74.5 498.78 72.1Q494.91 69.6 493.11 63.9Q491.4 58.2 491.4 48Q491.4 38.1 493.02 32.5Q494.73 26.8 498.51 24.3Q502.29 21.8 508.86 21.8Q515.97 21.8 519.93 23.8L519.93 7.2ZM516.15 63Q518.4 63 519.12 62.5Q519.93 61.9 519.93 60.3L519.93 33.3L509.58 33.3Q507.33 33.3 506.52 33.9Q505.71 34.4 505.71 35.9L505.71 63L516.15 63ZM565.2 21.8Q575.1 21.8 579.42 25.5Q583.74 29.1 583.74 37.5L583.74 73L577.26 73L573.75 68Q567.09 74.2 558.09 74.2Q550.26 74.2 546.75 70.5Q543.33 66.7 543.33 58.3Q543.33 51.6 545.4 48.2Q547.47 44.8 552.69 43.5Q557.91 42.1 568.35 42.1L570.33 42.1L570.33 33.7Q568.08 32.9 563.49 32.9Q555.75 32.9 547.02 35.4L545.31 25Q549.54 23.4 554.67 22.6Q559.89 21.8 565.2 21.8ZM563.58 63.7Q567.45 63.7 568.89 62.7Q570.33 61.7 570.33 58.9L570.33 50.3L562.41 50.3Q558.45 50.3 557.01 51.4Q555.66 52.4 555.66 55.3L555.66 63.7L563.58 63.7ZM595.98 73L595.98 23L602.46 23L605.97 28Q613.17 21.8 623.34 21.8Q629.64 21.8 633.06 24.4Q636.48 26.9 636.48 31.7L636.48 73L623.07 73L623.07 34L614.97 34Q611.82 34 610.56 35Q609.39 35.9 609.39 38.4L609.39 73L595.98 73ZM671.4 32.8L664.29 32.8L664.29 62.2Q667.08 62.7 670.14 62.8L669.51 72.9Q663.75 74.2 659.97 74.2Q655.29 74.2 653.04 72Q650.88 69.8 650.88 65.1L650.88 32.8L645.48 32.8L645.48 23L650.88 23L650.88 13.6L664.29 9.9L664.29 23L671.4 23L671.4 32.8ZM680.94 24.6L694.35 22.6L694.35 73L680.94 73L680.94 24.6ZM687.78 16.5Q683.37 16.5 681.75 14.8Q680.22 13.1 680.22 8.3Q680.22 3.4 681.75 1.7Q683.37 -0.1 687.78 -0.1Q692.01 -0.1 693.54 1.7Q695.16 3.4 695.16 8.3Q695.16 13.1 693.63 14.8Q692.1 16.5 687.78 16.5ZM723.15 74.2Q716.22 74.2 712.26 71.7Q708.3 69.2 706.5 63.6Q704.79 57.9 704.79 48Q704.79 38.1 706.5 32.5Q708.3 26.8 712.26 24.3Q716.22 21.8 723.15 21.8Q727.02 21.8 731.34 22.4Q735.66 22.9 738.09 23.7L736.74 34.3Q731.25 32.9 726.03 32.9Q722.16 32.9 720.54 34.7Q719.01 36.5 719.01 40.8L719.01 62.3Q721.44 63.1 725.94 63.1Q731.7 63.1 737.82 60.6L738.99 71Q732.15 74.2 723.15 74.2Z" />
</svg>
